<?xml version="1.0" encoding="UTF-8"?>
<svg xmlns="http://www.w3.org/2000/svg" viewBox="0 0 820 283" width="820" height="283">
<!-- Settlr logo - refined, transparent background, all 6 letter paths preserved from original -->
<style>
	path[fill="#1A1A1A"] { fill: #FFFFFF; }
</style>

<!-- Letter: S -->
<path d="M0 0 C1.17883759 0.00270905 2.35767517 0.00541809 3.57223511 0.00820923 C21.46701614 0.07046538 38.74434972 0.78937123 56.3125 4.4375 C57.26125 4.62473633 58.21 4.81197266 59.1875 5.00488281 C91.46190668 11.49338332 124.77694749 25.05104698 149.3125 47.4375 C149.89725098 47.9648877 150.48200195 48.49227539 151.08447266 49.03564453 C175.42174097 71.03928631 191.92317315 96.41122194 203.125 127.25 C203.68465454 128.78769043 203.68465454 128.78769043 204.25561523 130.35644531 C206.71336537 137.29322071 208.65134099 144.2694196 210.3125 151.4375 C196.44170073 155.24203382 182.56709417 158.95080074 168.5546875 162.19921875 C162.86552386 163.52596776 157.20228387 164.95528615 151.53662109 166.37817383 C148.10851065 167.23907716 144.67853103 168.09215937 141.24746704 168.94120789 C138.56544659 169.60498846 135.88403637 170.27121676 133.20263672 170.9375 C131.85583891 171.27167033 130.50883215 171.60499961 129.16162109 171.9375 C120.77943703 174.00727489 112.47494315 176.20621181 104.20751953 178.703125 C101.3125 179.4375 101.3125 179.4375 97.3125 179.4375 C97.17263672 178.88513672 97.03277344 178.33277344 96.88867188 177.76367188 C90.91780527 154.59056578 81.81663408 132.16899723 60.32299805 119.36547852 C40.65846775 108.0070857 21.24665919 103.05301061 -1.39111328 103.12182617 C-3.55422416 103.1249879 -5.71596255 103.10140214 -7.87890625 103.07617188 C-34.00558912 102.95904837 -57.78779285 111.22218336 -76.6875 129.4375 C-88.55439246 141.43576027 -91.95588958 157.01692655 -91.93408203 173.30249023 C-91.76037026 185.61104005 -87.53995576 195.47292753 -79.125 204.5625 C-65.2155018 217.65379243 -42.90972561 226.33719979 -24.1328125 229.9453125 C-20.5613433 230.66417052 -17.03389928 231.55572091 -13.5 232.4375 C-12.48280884 232.68717529 -12.48280884 232.68717529 -11.44506836 232.94189453 C-8.53252419 233.66797394 -5.67500266 234.441787 -2.83496094 235.41601562 C0.24881491 236.41683149 3.26634938 237.13215542 6.44140625 237.78125 C12.27435601 239.00037249 18.09102793 240.27536785 23.90234375 241.59375 C24.74270172 241.78388672 25.58305969 241.97402344 26.44888306 242.16992188 C29.91962538 242.95540026 33.39009847 243.74204955 36.86010742 244.53076172 C46.57357099 246.73716425 56.28743948 248.85936068 66.06176758 250.78027344 C70.46939229 251.67139816 74.83027854 252.70327183 79.1875 253.8125 C80.02627686 254.02455078 80.86505371 254.23660156 81.72924805 254.45507812 C89.31661025 256.39684715 96.84289959 258.51552037 104.32617188 260.82568359 C106.26110847 261.4216707 108.20082455 262.0020705 110.140625 262.58203125 C148.76333732 274.66172893 183.19166612 300.77562622 202.33496094 336.5546875 C206.99555464 345.53133551 210.60219645 354.77040426 213.5625 364.4375 C213.79662598 365.19498535 214.03075195 365.9524707 214.27197266 366.73291016 C218.25596966 380.35846549 219.83732645 393.48359803 219.6875 407.625 C219.6838443 408.38452972 219.6801886 409.14405945 219.67642212 409.92660522 C219.60684494 422.29885532 218.73403578 434.28234003 216.3125 446.4375 C216.0585584 447.80207676 215.80465077 449.16665983 215.55078125 450.53125 C214.30886936 456.78680617 212.62923325 462.5155508 210.3125 468.4375 C210.02246094 469.19699951 209.73242188 469.95649902 209.43359375 470.73901367 C201.87345775 490.48584763 192.88702383 507.85600906 178.3125 523.4375 C177.16129767 524.76620049 176.01514617 526.09930027 174.875 527.4375 C173.69377708 528.77639747 172.5059399 530.10948071 171.3125 531.4375 C170.64476562 532.18386719 169.97703125 532.93023438 169.2890625 533.69921875 C152.16120782 551.85006817 129.42346304 563.23030984 106.60693359 572.50048828 C104.67313032 573.29022407 102.75109132 574.10867792 100.83203125 574.93359375 C83.96215547 581.9390661 65.26623676 584.65645713 47.3125 587.4375 C46.27552979 587.61700195 45.23855957 587.79650391 44.17016602 587.98144531 C31.82587539 589.92291214 19.46863107 589.83419734 7 589.8125 C5.24213669 589.81168427 5.24213669 589.81168427 3.44876099 589.81085205 C-30.68409111 589.73817763 -65.51071458 586.65795161 -97.6875 574.4375 C-99.00593137 573.95804012 -100.32496964 573.48024667 -101.64453125 573.00390625 C-105.68019697 571.53534159 -109.68720321 569.99951095 -113.6875 568.4375 C-114.85023438 567.98761719 -116.01296875 567.53773438 -117.2109375 567.07421875 C-132.24651702 560.96708977 -145.77827946 552.19078088 -158.6875 542.4375 C-160.01394531 541.44943359 -160.01394531 541.44943359 -161.3671875 540.44140625 C-174.99872605 529.81377817 -188.09998971 516.84979298 -197.6875 502.4375 C-198.14253906 501.75623047 -198.59757812 501.07496094 -199.06640625 500.37304688 C-214.93261851 476.19293938 -226.34285483 449.03714267 -230.6875 420.4375 C-231.01450499 418.76958015 -231.34661533 417.10263859 -231.6875 415.4375 C-211.89534269 410.68887379 -192.09848974 405.99748189 -172.1953125 401.73413086 C-164.65094328 400.11339569 -157.16470489 398.34234859 -149.6875 396.4375 C-145.37810211 395.3621249 -141.06482812 394.30334864 -136.75 393.25 C-135.10547852 392.84104492 -135.10547852 392.84104492 -133.42773438 392.42382812 C-132.37005859 392.16666016 -131.31238281 391.90949219 -130.22265625 391.64453125 C-129.277854 391.4122583 -128.33305176 391.17998535 -127.35961914 390.94067383 C-124.73271283 390.44601381 -122.3531503 390.34414333 -119.6875 390.4375 C-119.46835937 391.39527344 -119.24921875 392.35304688 -119.0234375 393.33984375 C-112.09630997 422.7997832 -99.3909085 449.87566165 -72.6875 466.4375 C-38.12426621 487.196356 5.71581609 492.10038447 44.671875 482.40625 C57.2652295 478.94405596 70.49690969 473.17917453 80.3125 464.4375 C81.03566406 463.84066406 81.75882813 463.24382812 82.50390625 462.62890625 C92.19292798 453.95633012 100.00929859 438.77572149 100.74609375 425.640625 C100.76949407 423.98974866 100.77025469 422.33841793 100.75 420.6875 C100.74242676 419.81496582 100.73485352 418.94243164 100.72705078 418.04345703 C100.32884425 402.29831267 93.58993515 389.2687057 82.3125 378.4375 C65.67840207 364.37630211 43.64967409 358.29909391 23.00048828 353.12207031 C19.44345059 352.21617261 15.91158901 351.23259419 12.375 350.25 C5.57736955 348.43028035 -1.26142147 347.11621816 -8.18334961 345.88476562 C-9.42290405 345.66336914 -9.42290405 345.66336914 -10.6875 345.4375 C-12.36888062 345.13875977 -12.36888062 345.13875977 -14.08422852 344.83398438 C-23.89483678 343.04790194 -33.60381461 340.94245424 -43.3059082 338.640625 C-45.74972017 338.06256619 -48.19600215 337.49591813 -50.64257812 336.9296875 C-59.43137166 334.86874766 -67.97324661 332.484409 -76.50415039 329.53125 C-80.26458788 328.23922147 -84.03985427 327.17168361 -87.875 326.125 C-103.49699089 321.65975222 -118.39025687 315.11055322 -132.6875 307.4375 C-133.72003906 306.88578125 -134.75257813 306.3340625 -135.81640625 305.765625 C-153.83388797 295.68927037 -169.16818801 282.67063323 -181.44873047 266.10693359 C-182.59892313 264.55687104 -183.76936399 263.02188941 -184.94140625 261.48828125 C-192.48463311 251.45450131 -197.51034261 241.18017698 -201.375 229.25 C-201.76365234 228.06760742 -202.15230469 226.88521484 -202.55273438 225.66699219 C-205.34231192 216.98223415 -207.46483712 208.47647198 -208.6875 199.4375 C-208.85878418 198.36628906 -209.03006836 197.29507813 -209.20654297 196.19140625 C-209.68437925 192.46185768 -209.81687718 188.89886403 -209.8203125 185.140625 C-209.82174759 184.12920441 -209.82174759 184.12920441 -209.82321167 183.09735107 C-209.82388776 181.67883205 -209.82207362 180.26030983 -209.81787109 178.84179688 C-209.81254851 176.70695781 -209.81781819 174.57233235 -209.82421875 172.4375 C-209.83168201 161.4077635 -209.36638839 150.78880512 -206.625 140.0625 C-206.40948486 139.21526367 -206.19396973 138.36802734 -205.97192383 137.49511719 C-193.53088533 90.6552308 -163.80874452 53.3819795 -122.22460938 28.87646484 C-102.71997973 17.81408155 -81.61943213 9.9627812 -59.6875 5.4375 C-59.04096466 5.28623154 -58.39442932 5.13496307 -57.728302 4.97911072 C-38.74041174 0.53658435 -19.41792112 -0.10518992 0 0 Z " fill="#1A1A1A" transform="translate(98.854,20.218) scale(0.386847)"/>
<!-- Letter: e (with counter hole via evenodd) -->
<path d="M0 0 C1.26058228 0.26055176 1.26058228 0.26055176 2.54663086 0.52636719 C31.93033042 6.80519124 58.54502314 18.04416453 82.5 36.3125 C83.18167236 36.8175708 83.86334473 37.3226416 84.56567383 37.84301758 C90.52884536 42.33929183 95.81174492 47.32314268 101.0625 52.625 C102.26036133 53.81125977 102.26036133 53.81125977 103.48242188 55.02148438 C113.24537106 64.81626061 121.1563859 75.64722728 128.5 87.3125 C128.87769531 87.91239746 129.25539063 88.51229492 129.64453125 89.13037109 C141.88094624 108.91725947 149.78576837 130.61153156 154.5 153.3125 C154.7465332 154.46830566 154.7465332 154.46830566 154.99804688 155.64746094 C158.29433995 171.2730219 159.82310308 186.61845947 159.70581055 202.56567383 C159.68759125 205.11224528 159.68530179 207.65844819 159.68554688 210.20507812 C159.68062649 211.89323216 159.67479591 213.58138384 159.66796875 215.26953125 C159.66685593 215.99622513 159.6657431 216.72291901 159.66459656 217.47163391 C159.58802446 226.4462832 158.9730624 235.32431435 158.5 244.3125 C59.5 244.3125 -39.5 244.3125 -141.5 244.3125 C-138.31291826 257.42677221 -138.31291826 257.42677221 -134.125 270.125 C-133.82319824 270.92558838 -133.52139648 271.72617676 -133.21044922 272.55102539 C-128.89189808 283.75134549 -122.93322446 292.90249817 -115.5 302.3125 C-115.00886719 302.97121094 -114.51773438 303.62992188 -114.01171875 304.30859375 C-104.56830719 316.37053241 -87.83125199 325.47520066 -73.5 330.3125 C-72.39398437 330.75722656 -71.28796875 331.20195313 -70.1484375 331.66015625 C-59.40403556 335.59116753 -48.68090191 335.82810796 -37.375 335.875 C-36.61326477 335.88358032 -35.85152954 335.89216064 -35.06671143 335.90100098 C-10.61844876 336.09415362 15.11208084 327.79112413 33.16162109 310.79980469 C42.25925726 301.82119161 49.46936706 291.55047129 55.5 280.3125 C63.27146198 282.52666037 70.84510967 285.17789146 78.4375 287.9375 C89.12781493 291.79130652 99.86412011 295.47647127 110.65454102 299.04174805 C118.24851503 301.553657 125.8203484 304.12213765 133.375 306.75 C134.32608643 307.08016113 135.27717285 307.41032227 136.25708008 307.75048828 C140.37477212 309.1881259 144.47191717 310.63553665 148.5 312.3125 C147.91103015 316.08224288 146.83713345 318.90937186 144.98046875 322.234375 C144.45888184 323.16910645 143.93729492 324.10383789 143.39990234 325.06689453 C142.83480957 326.05544434 142.2697168 327.04399414 141.6875 328.0625 C141.10436035 329.08585449 140.5212207 330.10920898 139.92041016 331.16357422 C127.57806516 352.51006174 112.76384506 370.88543736 93.5 386.3125 C92.66082031 387.00730469 91.82164062 387.70210937 90.95703125 388.41796875 C65.60841154 409.25300276 34.30837175 419.41129621 2.5 425.3125 C1.67830322 425.48797363 0.85660645 425.66344727 0.01000977 425.84423828 C-11.94080558 428.07375524 -24.54190197 427.49875943 -36.64794922 427.49780273 C-39.73028451 427.49998603 -42.81225902 427.51819822 -45.89453125 427.53710938 C-61.92578748 427.58397593 -77.45147915 426.59068713 -93.125 423 C-94.57483276 422.67515625 -94.57483276 422.67515625 -96.05395508 422.34375 C-131.35083681 414.23639222 -165.28482588 396.61349502 -190.5 370.3125 C-191.27472656 369.5390625 -192.04945313 368.765625 -192.84765625 367.96875 C-206.78327329 354.01260922 -218.3919783 338.86795167 -227.5 321.3125 C-227.85658691 320.63058594 -228.21317383 319.94867187 -228.58056641 319.24609375 C-237.57057329 301.81943109 -243.53746703 283.5329114 -247.875 264.4375 C-248.11371826 263.39400391 -248.35243652 262.35050781 -248.59838867 261.27539062 C-251.94635648 245.68948046 -252.8529579 230.15950319 -252.81567383 214.25439453 C-252.81251019 211.44654553 -252.83610615 208.63975162 -252.86132812 205.83203125 C-252.90519282 193.40243244 -251.7416878 181.53186888 -249.5 169.3125 C-249.29157471 168.14090332 -249.08314941 166.96930664 -248.8684082 165.76220703 C-239.38825556 115.61397336 -211.32320518 68.1206156 -170.5 37.3125 C-169.93506836 36.88146973 -169.37013672 36.45043945 -168.78808594 36.00634766 C-153.64893301 24.51704896 -137.16674048 16.2038681 -119.5 9.3125 C-118.46141846 8.90596191 -118.46141846 8.90596191 -117.40185547 8.49121094 C-110.25306115 5.74653877 -102.9708328 3.93629745 -95.5 2.3125 C-94.51854004 2.09239258 -93.53708008 1.87228516 -92.52587891 1.64550781 C-63.20058315 -4.72125587 -29.49884329 -6.16180079 0 0 Z  M15.06250 103.50000 C33.78333 119.53503 45.44221 140.96575 49.50000 165.31250 C49.50000 166.63250 49.50000 167.95250 49.50000 169.31250 C-12.87000 169.31250 -75.24000 169.31250 -139.50000 169.31250 C-139.50000 151.19587 -129.72732 133.19355 -118.50000 119.31250 C-117.91348 118.58547 -117.32695 117.85844 -116.72266 117.10938 C-101.01742 98.44828 -78.66064 87.13636 -54.51465 84.47803 C-29.39472 82.41413 -5.05726 87.68559 15.06250 103.50000 Z" fill="#1A1A1A" fill-rule="evenodd" transform="translate(297.621,82.548) scale(0.386847)"/>

<!-- Letter: t1 -->
<path d="M0 0 C0 41.91 0 83.82 0 127 C33.97089606 126.6048336 33.97089606 126.6048336 67.94018555 126.09912109 C74.54650879 126.05395508 74.54650879 126.05395508 77.65022278 126.04556274 C79.79402999 126.03031855 81.93775741 125.99537904 84.08100891 125.94424438 C96.78533565 125.65658702 105.98775295 125.50186609 115.55480957 134.51495361 C116.36172241 135.33501892 117.16863525 136.15508423 118 137 C119.52399778 138.16513828 121.06757552 139.30604239 122.64453125 140.3984375 C123.33297119 140.89134277 124.02141113 141.38424805 124.73071289 141.89208984 C125.41770264 142.3814502 126.10469238 142.87081055 126.8125 143.375 C138.38576801 151.67899026 149.81593058 160.1770119 161 169 C159.4729988 173.44687513 155.9403842 175.49367149 152.25 178.0625 C150.88006793 179.04095226 149.51161133 180.02147316 148.14453125 181.00390625 C147.45053223 181.50164551 146.7565332 181.99938477 146.04150391 182.51220703 C142.94742142 184.76709087 139.93795114 187.12261436 136.9375 189.5 C136.36628418 189.95173584 135.79506836 190.40347168 135.20654297 190.86889648 C134.05129954 191.78388441 132.89667588 192.6996554 131.74267578 193.61621094 C128.792059 195.95917759 125.83422164 198.29291729 122.875 200.625 C121.32425781 201.85089844 121.32425781 201.85089844 119.7421875 203.1015625 C118.86568039 203.75242073 118.86568039 203.75242073 117.97146606 204.41642761 C115.89149598 206.01974301 115.89149598 206.01974301 113.85055542 208.22090149 C103.93093685 217.43560014 92.96020631 216.15480932 80.078125 215.87890625 C77.76359545 215.8620956 75.44903363 215.84929605 73.13446045 215.84031677 C67.07724752 215.80614658 61.02201352 215.71790797 54.96557617 215.61798096 C48.77159386 215.52549246 42.57728805 215.48471921 36.3828125 215.43945312 C24.25434447 215.34327223 12.12733754 215.18990532 0 215 C0.06071625 238.79293652 0.1383433 262.58576697 0.23571491 286.37858295 C0.28054565 297.42775324 0.31998916 308.4768922 0.34643555 319.52612305 C0.36951918 329.16454926 0.40303148 338.8028753 0.44870156 348.44122189 C0.47249492 353.53745707 0.49131416 358.63359388 0.49761391 363.72988319 C0.50372829 368.54226607 0.52395261 373.35439775 0.55427551 378.16668701 C0.56295524 379.91798841 0.56679967 381.66932277 0.56500816 383.42064476 C0.44651635 406.55409087 0.44651635 406.55409087 8 428 C8.598125 429.051875 9.19625 430.10375 9.8125 431.1875 C16.4162241 439.67800242 25.35341887 444.50841896 36 446 C52.09669697 446.90012382 67.50611021 446.68062382 83 442 C84.57099709 441.63213364 86.14499746 441.2769084 87.72143555 440.93310547 C88.52477829 440.75713837 89.32812103 440.58117126 90.1558075 440.39987183 C90.76439102 440.26791412 91.37297455 440.13595642 92 440 C92.04567108 440.64161575 92.09134216 441.28323151 92.13839722 441.94429016 C92.62484355 448.77710204 93.11184013 455.60987455 93.59912109 462.44262695 C93.77959359 464.97419293 93.95993735 467.50576808 94.14013672 470.03735352 C94.40295967 473.72935522 94.66631748 477.42131854 94.9296875 481.11328125 C95.01692078 482.34120392 95.10415405 483.56912659 95.19403076 484.83425903 C95.63879033 491.06717091 96.09657813 497.29869889 96.57910156 503.52880859 C96.71845627 505.34520088 96.71845627 505.34520088 96.86062622 507.19828796 C97.03614883 509.47605737 97.21469378 511.75359688 97.39694214 514.03083801 C97.88349839 520.36944907 98.11035849 526.64300851 98 533 C94.08414785 534.10706864 90.16716961 535.21010289 86.25 536.3125 C85.15816406 536.62123047 84.06632812 536.92996094 82.94140625 537.24804688 C79.63107968 538.17846411 76.31655037 539.09203768 73 540 C71.98228516 540.28536621 70.96457031 540.57073242 69.91601562 540.86474609 C56.65277458 544.42280733 43.32808714 544.18641647 29.69262695 544.18530273 C26.70444449 544.18748761 23.71663306 544.20569568 20.72851562 544.22460938 C-15.6372557 544.33295375 -50.60545781 535.0531356 -77.25 509.25 C-90.85388004 495.51798987 -101.245412 475.19915291 -104.5625 456.1875 C-104.68544434 455.49245361 -104.80838867 454.79740723 -104.93505859 454.08129883 C-105.18058808 452.69269317 -105.42350526 451.30362261 -105.66357422 449.9140625 C-106.11740423 447.3320398 -106.62581313 444.76108564 -107.125 442.1875 C-109.27667645 429.95421335 -109.13711434 417.75964729 -109.11352539 405.38208008 C-109.11324297 403.30166627 -109.11340233 401.22125237 -109.1139679 399.14083862 C-109.11425372 393.51975964 -109.10839182 387.89870218 -109.10139394 382.27762818 C-109.09512452 376.3933131 -109.09455377 370.50899747 -109.09336853 364.62467957 C-109.09026578 353.49380264 -109.08206665 342.36293558 -109.07201904 331.232063 C-109.06082507 318.55490411 -109.05533919 305.87774475 -109.05032361 293.20058215 C-109.03988313 267.1337147 -109.02155081 241.06686079 -109 215 C-131.44 215 -153.88 215 -177 215 C-177 185.63 -177 156.26 -177 126 C-154.56 126 -132.12 126 -109 126 C-109 92.34 -109 58.68 -109 24 C-80.56635802 17.17592593 -80.56635802 17.17592593 -68.75 14.4375 C-59.99317472 12.40265357 -51.2418408 10.34826785 -42.5 8.25 C-35.75733008 6.63384458 -29.0070298 5.10563121 -22.21875 3.69140625 C-17.76953586 2.73568914 -13.35347596 1.64914262 -8.9375 0.55078125 C-6 0 -6 0 0 0 Z " fill="#1A1A1A" transform="translate(434.758,35.861) scale(0.386847)"/>
<!-- Letter: t2 -->
<path d="M0 0 C0 41.58 0 83.16 0 126 C14.52 126 29.04 126 44 126 C44 115.44 44 104.88 44 94 C47.39145307 95.69572653 48.7940711 96.58254628 51.25 99.1875 C53.64051309 101.65382217 56.06840583 103.96589829 58.6875 106.1875 C62.30139713 109.29615326 65.65286826 112.61114646 69 116 C72.8512064 119.8989733 76.76421751 123.60824316 80.94140625 127.16015625 C83.56498781 129.50495115 86.02989517 131.99631115 88.5 134.5 C91.51231757 137.55316255 94.53548853 140.5407237 97.8125 143.3125 C102.40798785 147.22436156 106.59443076 151.54213096 110.8137207 155.85083008 C114.70517592 159.79968302 118.74777615 163.44113239 123 167 C120.14721268 172.94368974 115.33698116 176.88839321 110.375 181.125 C104.83611467 185.89429461 99.7640049 191.15028833 94.6340332 196.35009766 C93.39632202 197.59982905 92.15405763 198.84505315 90.90966797 200.08813477 C88.46935011 202.52654965 86.03856905 204.97432694 83.60864258 207.4230957 C79.49789746 211.56565762 75.38288731 215.70394754 71.26460743 219.83901691 C68.78061268 222.33350935 66.29855096 224.82986787 63.82055664 227.33032227 C60.95486906 230.22180279 58.08120857 233.10523939 55.20703125 235.98828125 C54.31434036 236.89129471 53.42164948 237.79430817 52.50190735 238.72468567 C51.67732529 239.54941879 50.85274323 240.37415192 50.00317383 241.22387695 C49.27657059 241.95492142 48.54996735 242.68596588 47.80134583 243.43916321 C46 245 46 245 44 245 C44 235.1 44 225.2 44 215 C29.48 215 14.96 215 0 215 C0.08554446 239.41807592 0.17918902 263.83607722 0.28752708 288.2540617 C0.33757602 299.59261931 0.38401967 310.93116997 0.421875 322.26977539 C0.45489207 332.15642935 0.49477654 342.04302812 0.54279006 351.92962104 C0.5679587 357.1609047 0.58976809 362.39215219 0.60334396 367.62347984 C0.61625219 372.55562691 0.63839953 377.48764936 0.66738319 382.41972733 C0.67639092 384.22192976 0.68213312 386.02415222 0.68421364 387.82637596 C0.70802957 405.33588443 0.97430124 423.7330846 14 437 C26.08408838 447.40722149 44.82883201 448.11874231 60 447 C69.53888469 445.78531056 78.96221589 443.91938297 87.98999023 440.5793457 C90 440 90 440 94 440 C94.07347656 441.89105469 94.07347656 441.89105469 94.1484375 443.8203125 C94.53226011 453.03027402 95.04601263 462.19939206 95.9375 471.375 C97.90047951 491.8538024 99.47196426 512.41711427 99 533 C73.89971563 541.1442412 50.71023059 544.44320022 24.3125 544.4375 C23.25617371 544.4385675 22.19984741 544.43963501 21.11151123 544.44073486 C5.48759205 544.41795473 -8.99010549 543.68769124 -24 539 C-25.62867224 538.53693658 -27.25757744 538.07469169 -28.88671875 537.61328125 C-42.53842826 533.56255802 -55.21389369 527.40788162 -66 518 C-66.81984375 517.30003906 -67.6396875 516.60007812 -68.484375 515.87890625 C-83.10379029 503.09799319 -94.08547155 487.60664958 -100 469 C-100.26941406 468.18917969 -100.53882813 467.37835937 -100.81640625 466.54296875 C-101.60849123 464.04230256 -102.31612103 461.53248933 -103 459 C-103.495 457.17662109 -103.495 457.17662109 -104 455.31640625 C-104.35575245 453.96135284 -104.70991562 452.6058812 -105.0625 451.25 C-105.38347656 450.01765625 -105.70445313 448.7853125 -106.03515625 447.515625 C-108.96375436 434.57150459 -109.34134868 421.8606807 -109.43334961 408.65917969 C-109.45410912 406.64380243 -109.47551513 404.62843175 -109.49751282 402.61306763 C-109.56484682 396.0494258 -109.61082663 389.48572502 -109.65234375 382.921875 C-109.65958694 381.80148866 -109.66683012 380.68110231 -109.6742928 379.52676487 C-109.74139271 368.9482612 -109.79947569 358.36973735 -109.83782101 347.7910881 C-109.88739531 334.30266743 -109.98046265 320.81607421 -110.13173288 307.32840037 C-110.23478187 297.81637802 -110.28798949 288.30485085 -110.3044911 278.79228902 C-110.31568912 273.12053201 -110.34873897 267.45089211 -110.43562126 261.77974701 C-110.51625579 256.45012255 -110.53502835 251.12379314 -110.50698662 245.79366684 C-110.50736859 243.84329797 -110.52986477 241.89278327 -110.57658768 239.94297409 C-110.90192928 225.60089548 -110.90192928 225.60089548 -107.71328664 221.24041462 C-104.23811553 217.75650626 -100.26466508 215.40015372 -96 213 C-94.7091418 212.04280713 -93.43510042 211.0615394 -92.1953125 210.0390625 C-91.18210937 209.24242187 -90.16890625 208.44578125 -89.125 207.625 C-84.22971917 203.77515202 -79.35949901 199.89488406 -74.5 196 C-63.82129143 187.44541684 -53.14824795 178.94028273 -42 171 C-42.37622393 168.48564884 -42.71787314 167.26676095 -44.59130859 165.49536133 C-45.27016113 165.0289624 -45.94901367 164.56256348 -46.6484375 164.08203125 C-47.40108887 163.55448242 -48.15374023 163.02693359 -48.92919922 162.48339844 C-50.13987061 161.65630371 -50.13987061 161.65630371 -51.375 160.8125 C-53.03313595 159.64982041 -54.68939268 158.48445613 -56.34375 157.31640625 C-57.148125 156.74937988 -57.9525 156.18235352 -58.78125 155.59814453 C-62.48295027 152.93184502 -65.94990576 150.02348547 -69.44921875 147.09765625 C-73.61332062 143.67327232 -77.95066654 140.48534012 -82.28125 137.27587891 C-85.59089399 134.81903239 -88.88866354 132.34632648 -92.1875 129.875 C-92.82840576 129.39635498 -93.46931152 128.91770996 -94.12963867 128.42456055 C-95.38293958 127.48630402 -96.62310632 126.5301806 -97.84779358 125.55487061 C-99.94545693 123.93674797 -99.94545693 123.93674797 -102.32427979 122.91578674 C-105.38120813 121.25237698 -106.98919952 119.87194802 -109 117 C-110.72435542 110.22784064 -110.04304323 102.89377195 -109.87890625 95.97265625 C-109.86210889 93.89760604 -109.84930304 91.82252 -109.84031677 89.74742126 C-109.80604121 84.29996251 -109.71771252 78.85468221 -109.61798096 73.40808105 C-109.5257201 67.84461944 -109.48476768 62.28080388 -109.43945312 56.71679688 C-109.34308638 45.81024358 -109.1895914 34.90530331 -109 24 C-108.25427734 23.82871582 -107.50855469 23.65743164 -106.74023438 23.48095703 C-103.32664173 22.69642402 -99.91331933 21.91072126 -96.5 21.125 C-95.32695313 20.85558594 -94.15390625 20.58617187 -92.9453125 20.30859375 C-86.94841468 18.92728583 -80.96335294 17.51971672 -75 16 C-60.91154964 12.4301424 -46.71763418 9.28287954 -32.5390625 6.09375 C-31.83187576 5.93457596 -31.12468903 5.77540192 -30.39607239 5.61140442 C-26.92010016 4.82926398 -23.4437147 4.04905134 -19.96655273 3.2722168 C-18.71044189 2.99031494 -17.45433105 2.70841309 -16.16015625 2.41796875 C-15.04261963 2.16813232 -13.92508301 1.9182959 -12.77368164 1.66088867 C-7.82120965 0.48085684 -5.58681716 0 0 0 Z " fill="#1A1A1A" transform="translate(531.083,35.861) scale(0.386847)"/>
<!-- Letter: l -->
<path d="M0 0 C36.63 0 73.26 0 111 0 C111 188.1 111 376.2 111 570 C74.37 570 37.74 570 0 570 C0 381.9 0 193.8 0 0 Z " fill="#1A1A1A" transform="translate(592.205,23.482) scale(0.386847)"/>
<!-- Letter: r -->
<path d="M0 0 C0.6849353 -0.00440094 1.36987061 -0.00880188 2.07556152 -0.01333618 C12.41593494 -0.04106958 22.09646487 1.29916781 32.1875 3.5 C33.17854736 3.71205078 34.16959473 3.92410156 35.19067383 4.14257812 C37.19305328 4.57958907 39.19107548 5.03654431 41.1875 5.5 C40.19272158 18.41727207 38.53155394 31.16425497 36.55178833 43.96478271 C34.08877228 60.0294503 32.42372753 76.16942233 30.79956055 92.33740234 C30.69876694 93.32964813 30.59797333 94.32189392 30.49412537 95.34420776 C30.30412606 97.22104746 30.11773461 99.09825689 29.93544006 100.9758606 C29.80932594 102.2243428 29.80932594 102.2243428 29.68066406 103.49804688 C29.57337982 104.58998352 29.57337982 104.58998352 29.46392822 105.70397949 C29.1875 107.5 29.1875 107.5 28.1875 109.5 C22.6461808 109.00523936 17.37702132 108.11421277 11.9375 106.9375 C-14.35291324 101.68884044 -42.33047982 107.05246086 -64.86328125 121.44921875 C-74.39406806 128.15899812 -81.5023012 135.72888838 -87.8125 145.5 C-88.32683594 146.29277344 -88.84117187 147.08554687 -89.37109375 147.90234375 C-110.57038892 181.87627912 -110.42713727 219.97592337 -110.42000484 258.63310027 C-110.42317454 264.30650127 -110.44887527 269.97980397 -110.47198486 275.65315247 C-110.51224217 286.35141585 -110.53281361 297.04961876 -110.54595876 307.74794608 C-110.56493076 322.2364004 -110.61503045 336.72474695 -110.66320229 351.21312809 C-110.7380786 373.97541301 -110.77198664 396.73756784 -110.8125 419.5 C-147.4425 419.5 -184.0725 419.5 -221.8125 419.5 C-221.8125 283.87 -221.8125 148.24 -221.8125 8.5 C-186.5025 8.5 -151.1925 8.5 -114.8125 8.5 C-114.1525 30.28 -113.4925 52.06 -112.8125 74.5 C-107.8625 65.59 -107.8625 65.59 -102.8125 56.5 C-98.19249157 49.86280479 -93.27597061 43.74478534 -87.875 37.75 C-87.40199463 37.2235791 -86.92898926 36.6971582 -86.44165039 36.15478516 C-85.27527161 34.89496895 -84.04847829 33.69160984 -82.8125 32.5 C-82.1525 32.5 -81.4925 32.5 -80.8125 32.5 C-80.8125 31.84 -80.8125 31.18 -80.8125 30.5 C-68.51426421 19.25864385 -53.71268591 10.48930915 -37.8125 5.5 C-37.12784668 5.27296387 -36.44319336 5.04592773 -35.73779297 4.81201172 C-23.91797114 1.00423204 -12.34016896 0.01902946 0 0 Z " fill="#1A1A1A" transform="translate(748.419,81.702) scale(0.386847)"/>
<!-- Green square accent -->
<rect x="745.0" y="190.6" width="53.8" height="53.8" rx="4" fill="#15B474"/>
<!-- Sparkle icon -->
<path d="M0 0 C2.69266987 0.99232968 3.78092105 1.53162432 5.01953125 4.1796875 C5.41205078 5.51386719 5.41205078 5.51386719 5.8125 6.875 C11.00831243 22.26104922 20.64113557 33.45551191 35 41 C39.2783408 42.83889512 43.59841497 44.48148815 48 46 C48 47.32 48 48.64 48 50 C46.88625 50.391875 45.7725 50.78375 44.625 51.1875 C27.1062642 57.83040687 14.54108252 68.62693912 6.5078125 85.60546875 C4.97416474 89.05816281 3.47592263 92.52230208 2 96 C1.01 96 0.02 96 -1 96 C-1.18433594 95.29617188 -1.36867188 94.59234375 -1.55859375 93.8671875 C-6.29895182 77.72890181 -15.8944976 64.99477704 -30.62426758 56.80517578 C-35.95985642 53.9354339 -41.42323327 51.36728057 -47 49 C-46.00767032 46.30733013 -45.46837568 45.21907895 -42.8203125 43.98046875 C-41.48613281 43.58794922 -41.48613281 43.58794922 -40.125 43.1875 C-25.13939422 38.12691585 -14.1894298 29.07614676 -7 15 C-4.57636249 10.04094296 -2.26773059 5.03194657 0 0 Z " fill="#818282" transform="translate(892.785,372.805) scale(0.386847)"/>
</svg>